<?xml version="1.0" encoding="utf-8" standalone="no"?>
<!DOCTYPE svg PUBLIC "-//W3C//DTD SVG 1.1//EN"
  "http://www.w3.org/Graphics/SVG/1.1/DTD/svg11.dtd">
<svg xmlns:xlink="http://www.w3.org/1999/xlink" width="460.8pt" height="345.6pt" viewBox="0 0 460.8 345.6" xmlns="http://www.w3.org/2000/svg" version="1.1">
 <metadata>
  <rdf:RDF xmlns:dc="http://purl.org/dc/elements/1.1/" xmlns:cc="http://creativecommons.org/ns#" xmlns:rdf="http://www.w3.org/1999/02/22-rdf-syntax-ns#">
   <cc:Work>
    <dc:type rdf:resource="http://purl.org/dc/dcmitype/StillImage"/>
    <dc:date>2023-01-09T23:51:10.671350</dc:date>
    <dc:format>image/svg+xml</dc:format>
    <dc:creator>
     <cc:Agent>
      <dc:title>Matplotlib v3.6.1, https://matplotlib.org/</dc:title>
     </cc:Agent>
    </dc:creator>
   </cc:Work>
  </rdf:RDF>
 </metadata>
 <defs>
  <style type="text/css">*{stroke-linejoin: round; stroke-linecap: butt}</style>
 </defs>
 <g id="figure_1">
  <g id="patch_1">
   <path d="M 0 345.6 
L 460.8 345.6 
L 460.8 0 
L 0 0 
z
" style="fill: #ffffff"/>
  </g>
  <g id="axes_1">
   <g id="patch_2">
    <path d="M 57.6 307.584 
L 414.72 307.584 
L 414.72 41.472 
L 57.6 41.472 
z
" style="fill: #ffffff"/>
   </g>
   <g id="matplotlib.axis_1">
    <g id="xtick_1">
     <g id="line2d_1">
      <defs>
       <path id="m0fbb04ea64" d="M 0 0 
L 0 3.5 
" style="stroke: #000000; stroke-width: 0.8"/>
      </defs>
      <g>
       <use xlink:href="#m0fbb04ea64" x="73.832727" y="307.584" style="stroke: #000000; stroke-width: 0.8"/>
      </g>
     </g>
     <g id="text_1">
      <!-- 0 -->
      <g transform="translate(70.651477 322.182437) scale(0.1 -0.1)">
       <defs>
        <path id="DejaVuSans-30" d="M 2034 4250 
Q 1547 4250 1301 3770 
Q 1056 3291 1056 2328 
Q 1056 1369 1301 889 
Q 1547 409 2034 409 
Q 2525 409 2770 889 
Q 3016 1369 3016 2328 
Q 3016 3291 2770 3770 
Q 2525 4250 2034 4250 
z
M 2034 4750 
Q 2819 4750 3233 4129 
Q 3647 3509 3647 2328 
Q 3647 1150 3233 529 
Q 2819 -91 2034 -91 
Q 1250 -91 836 529 
Q 422 1150 422 2328 
Q 422 3509 836 4129 
Q 1250 4750 2034 4750 
z
" transform="scale(0.015625)"/>
       </defs>
       <use xlink:href="#DejaVuSans-30"/>
      </g>
     </g>
    </g>
    <g id="xtick_2">
     <g id="line2d_2">
      <g>
       <use xlink:href="#m0fbb04ea64" x="138.763636" y="307.584" style="stroke: #000000; stroke-width: 0.8"/>
      </g>
     </g>
     <g id="text_2">
      <!-- 20 -->
      <g transform="translate(132.401136 322.182437) scale(0.1 -0.1)">
       <defs>
        <path id="DejaVuSans-32" d="M 1228 531 
L 3431 531 
L 3431 0 
L 469 0 
L 469 531 
Q 828 903 1448 1529 
Q 2069 2156 2228 2338 
Q 2531 2678 2651 2914 
Q 2772 3150 2772 3378 
Q 2772 3750 2511 3984 
Q 2250 4219 1831 4219 
Q 1534 4219 1204 4116 
Q 875 4013 500 3803 
L 500 4441 
Q 881 4594 1212 4672 
Q 1544 4750 1819 4750 
Q 2544 4750 2975 4387 
Q 3406 4025 3406 3419 
Q 3406 3131 3298 2873 
Q 3191 2616 2906 2266 
Q 2828 2175 2409 1742 
Q 1991 1309 1228 531 
z
" transform="scale(0.015625)"/>
       </defs>
       <use xlink:href="#DejaVuSans-32"/>
       <use xlink:href="#DejaVuSans-30" x="63.623047"/>
      </g>
     </g>
    </g>
    <g id="xtick_3">
     <g id="line2d_3">
      <g>
       <use xlink:href="#m0fbb04ea64" x="203.694545" y="307.584" style="stroke: #000000; stroke-width: 0.8"/>
      </g>
     </g>
     <g id="text_3">
      <!-- 40 -->
      <g transform="translate(197.332045 322.182437) scale(0.1 -0.1)">
       <defs>
        <path id="DejaVuSans-34" d="M 2419 4116 
L 825 1625 
L 2419 1625 
L 2419 4116 
z
M 2253 4666 
L 3047 4666 
L 3047 1625 
L 3713 1625 
L 3713 1100 
L 3047 1100 
L 3047 0 
L 2419 0 
L 2419 1100 
L 313 1100 
L 313 1709 
L 2253 4666 
z
" transform="scale(0.015625)"/>
       </defs>
       <use xlink:href="#DejaVuSans-34"/>
       <use xlink:href="#DejaVuSans-30" x="63.623047"/>
      </g>
     </g>
    </g>
    <g id="xtick_4">
     <g id="line2d_4">
      <g>
       <use xlink:href="#m0fbb04ea64" x="268.625455" y="307.584" style="stroke: #000000; stroke-width: 0.8"/>
      </g>
     </g>
     <g id="text_4">
      <!-- 60 -->
      <g transform="translate(262.262955 322.182437) scale(0.1 -0.1)">
       <defs>
        <path id="DejaVuSans-36" d="M 2113 2584 
Q 1688 2584 1439 2293 
Q 1191 2003 1191 1497 
Q 1191 994 1439 701 
Q 1688 409 2113 409 
Q 2538 409 2786 701 
Q 3034 994 3034 1497 
Q 3034 2003 2786 2293 
Q 2538 2584 2113 2584 
z
M 3366 4563 
L 3366 3988 
Q 3128 4100 2886 4159 
Q 2644 4219 2406 4219 
Q 1781 4219 1451 3797 
Q 1122 3375 1075 2522 
Q 1259 2794 1537 2939 
Q 1816 3084 2150 3084 
Q 2853 3084 3261 2657 
Q 3669 2231 3669 1497 
Q 3669 778 3244 343 
Q 2819 -91 2113 -91 
Q 1303 -91 875 529 
Q 447 1150 447 2328 
Q 447 3434 972 4092 
Q 1497 4750 2381 4750 
Q 2619 4750 2861 4703 
Q 3103 4656 3366 4563 
z
" transform="scale(0.015625)"/>
       </defs>
       <use xlink:href="#DejaVuSans-36"/>
       <use xlink:href="#DejaVuSans-30" x="63.623047"/>
      </g>
     </g>
    </g>
    <g id="xtick_5">
     <g id="line2d_5">
      <g>
       <use xlink:href="#m0fbb04ea64" x="333.556364" y="307.584" style="stroke: #000000; stroke-width: 0.8"/>
      </g>
     </g>
     <g id="text_5">
      <!-- 80 -->
      <g transform="translate(327.193864 322.182437) scale(0.1 -0.1)">
       <defs>
        <path id="DejaVuSans-38" d="M 2034 2216 
Q 1584 2216 1326 1975 
Q 1069 1734 1069 1313 
Q 1069 891 1326 650 
Q 1584 409 2034 409 
Q 2484 409 2743 651 
Q 3003 894 3003 1313 
Q 3003 1734 2745 1975 
Q 2488 2216 2034 2216 
z
M 1403 2484 
Q 997 2584 770 2862 
Q 544 3141 544 3541 
Q 544 4100 942 4425 
Q 1341 4750 2034 4750 
Q 2731 4750 3128 4425 
Q 3525 4100 3525 3541 
Q 3525 3141 3298 2862 
Q 3072 2584 2669 2484 
Q 3125 2378 3379 2068 
Q 3634 1759 3634 1313 
Q 3634 634 3220 271 
Q 2806 -91 2034 -91 
Q 1263 -91 848 271 
Q 434 634 434 1313 
Q 434 1759 690 2068 
Q 947 2378 1403 2484 
z
M 1172 3481 
Q 1172 3119 1398 2916 
Q 1625 2713 2034 2713 
Q 2441 2713 2670 2916 
Q 2900 3119 2900 3481 
Q 2900 3844 2670 4047 
Q 2441 4250 2034 4250 
Q 1625 4250 1398 4047 
Q 1172 3844 1172 3481 
z
" transform="scale(0.015625)"/>
       </defs>
       <use xlink:href="#DejaVuSans-38"/>
       <use xlink:href="#DejaVuSans-30" x="63.623047"/>
      </g>
     </g>
    </g>
    <g id="xtick_6">
     <g id="line2d_6">
      <g>
       <use xlink:href="#m0fbb04ea64" x="398.487273" y="307.584" style="stroke: #000000; stroke-width: 0.8"/>
      </g>
     </g>
     <g id="text_6">
      <!-- 100 -->
      <g transform="translate(388.943523 322.182437) scale(0.1 -0.1)">
       <defs>
        <path id="DejaVuSans-31" d="M 794 531 
L 1825 531 
L 1825 4091 
L 703 3866 
L 703 4441 
L 1819 4666 
L 2450 4666 
L 2450 531 
L 3481 531 
L 3481 0 
L 794 0 
L 794 531 
z
" transform="scale(0.015625)"/>
       </defs>
       <use xlink:href="#DejaVuSans-31"/>
       <use xlink:href="#DejaVuSans-30" x="63.623047"/>
       <use xlink:href="#DejaVuSans-30" x="127.246094"/>
      </g>
     </g>
    </g>
   </g>
   <g id="matplotlib.axis_2">
    <g id="ytick_1">
     <g id="line2d_7">
      <defs>
       <path id="m25e0dc4a82" d="M 0 0 
L -3.5 0 
" style="stroke: #000000; stroke-width: 0.8"/>
      </defs>
      <g>
       <use xlink:href="#m25e0dc4a82" x="57.6" y="291.795411" style="stroke: #000000; stroke-width: 0.8"/>
      </g>
     </g>
     <g id="text_7">
      <!-- −8 -->
      <g transform="translate(35.857813 295.59463) scale(0.1 -0.1)">
       <defs>
        <path id="DejaVuSans-2212" d="M 678 2272 
L 4684 2272 
L 4684 1741 
L 678 1741 
L 678 2272 
z
" transform="scale(0.015625)"/>
       </defs>
       <use xlink:href="#DejaVuSans-2212"/>
       <use xlink:href="#DejaVuSans-38" x="83.789062"/>
      </g>
     </g>
    </g>
    <g id="ytick_2">
     <g id="line2d_8">
      <g>
       <use xlink:href="#m25e0dc4a82" x="57.6" y="261.990871" style="stroke: #000000; stroke-width: 0.8"/>
      </g>
     </g>
     <g id="text_8">
      <!-- −6 -->
      <g transform="translate(35.857813 265.79009) scale(0.1 -0.1)">
       <use xlink:href="#DejaVuSans-2212"/>
       <use xlink:href="#DejaVuSans-36" x="83.789062"/>
      </g>
     </g>
    </g>
    <g id="ytick_3">
     <g id="line2d_9">
      <g>
       <use xlink:href="#m25e0dc4a82" x="57.6" y="232.186331" style="stroke: #000000; stroke-width: 0.8"/>
      </g>
     </g>
     <g id="text_9">
      <!-- −4 -->
      <g transform="translate(35.857813 235.98555) scale(0.1 -0.1)">
       <use xlink:href="#DejaVuSans-2212"/>
       <use xlink:href="#DejaVuSans-34" x="83.789062"/>
      </g>
     </g>
    </g>
    <g id="ytick_4">
     <g id="line2d_10">
      <g>
       <use xlink:href="#m25e0dc4a82" x="57.6" y="202.381792" style="stroke: #000000; stroke-width: 0.8"/>
      </g>
     </g>
     <g id="text_10">
      <!-- −2 -->
      <g transform="translate(35.857813 206.18101) scale(0.1 -0.1)">
       <use xlink:href="#DejaVuSans-2212"/>
       <use xlink:href="#DejaVuSans-32" x="83.789062"/>
      </g>
     </g>
    </g>
    <g id="ytick_5">
     <g id="line2d_11">
      <g>
       <use xlink:href="#m25e0dc4a82" x="57.6" y="172.577252" style="stroke: #000000; stroke-width: 0.8"/>
      </g>
     </g>
     <g id="text_11">
      <!-- 0 -->
      <g transform="translate(44.2375 176.376471) scale(0.1 -0.1)">
       <use xlink:href="#DejaVuSans-30"/>
      </g>
     </g>
    </g>
    <g id="ytick_6">
     <g id="line2d_12">
      <g>
       <use xlink:href="#m25e0dc4a82" x="57.6" y="142.772712" style="stroke: #000000; stroke-width: 0.8"/>
      </g>
     </g>
     <g id="text_12">
      <!-- 2 -->
      <g transform="translate(44.2375 146.571931) scale(0.1 -0.1)">
       <use xlink:href="#DejaVuSans-32"/>
      </g>
     </g>
    </g>
    <g id="ytick_7">
     <g id="line2d_13">
      <g>
       <use xlink:href="#m25e0dc4a82" x="57.6" y="112.968172" style="stroke: #000000; stroke-width: 0.8"/>
      </g>
     </g>
     <g id="text_13">
      <!-- 4 -->
      <g transform="translate(44.2375 116.767391) scale(0.1 -0.1)">
       <use xlink:href="#DejaVuSans-34"/>
      </g>
     </g>
    </g>
    <g id="ytick_8">
     <g id="line2d_14">
      <g>
       <use xlink:href="#m25e0dc4a82" x="57.6" y="83.163632" style="stroke: #000000; stroke-width: 0.8"/>
      </g>
     </g>
     <g id="text_14">
      <!-- 6 -->
      <g transform="translate(44.2375 86.962851) scale(0.1 -0.1)">
       <use xlink:href="#DejaVuSans-36"/>
      </g>
     </g>
    </g>
    <g id="ytick_9">
     <g id="line2d_15">
      <g>
       <use xlink:href="#m25e0dc4a82" x="57.6" y="53.359093" style="stroke: #000000; stroke-width: 0.8"/>
      </g>
     </g>
     <g id="text_15">
      <!-- 8 -->
      <g transform="translate(44.2375 57.158311) scale(0.1 -0.1)">
       <use xlink:href="#DejaVuSans-38"/>
      </g>
     </g>
    </g>
    <g id="text_16">
     <!-- 1e−9 -->
     <g transform="translate(57.6 38.472) scale(0.1 -0.1)">
      <defs>
       <path id="DejaVuSans-65" d="M 3597 1894 
L 3597 1613 
L 953 1613 
Q 991 1019 1311 708 
Q 1631 397 2203 397 
Q 2534 397 2845 478 
Q 3156 559 3463 722 
L 3463 178 
Q 3153 47 2828 -22 
Q 2503 -91 2169 -91 
Q 1331 -91 842 396 
Q 353 884 353 1716 
Q 353 2575 817 3079 
Q 1281 3584 2069 3584 
Q 2775 3584 3186 3129 
Q 3597 2675 3597 1894 
z
M 3022 2063 
Q 3016 2534 2758 2815 
Q 2500 3097 2075 3097 
Q 1594 3097 1305 2825 
Q 1016 2553 972 2059 
L 3022 2063 
z
" transform="scale(0.015625)"/>
       <path id="DejaVuSans-39" d="M 703 97 
L 703 672 
Q 941 559 1184 500 
Q 1428 441 1663 441 
Q 2288 441 2617 861 
Q 2947 1281 2994 2138 
Q 2813 1869 2534 1725 
Q 2256 1581 1919 1581 
Q 1219 1581 811 2004 
Q 403 2428 403 3163 
Q 403 3881 828 4315 
Q 1253 4750 1959 4750 
Q 2769 4750 3195 4129 
Q 3622 3509 3622 2328 
Q 3622 1225 3098 567 
Q 2575 -91 1691 -91 
Q 1453 -91 1209 -44 
Q 966 3 703 97 
z
M 1959 2075 
Q 2384 2075 2632 2365 
Q 2881 2656 2881 3163 
Q 2881 3666 2632 3958 
Q 2384 4250 1959 4250 
Q 1534 4250 1286 3958 
Q 1038 3666 1038 3163 
Q 1038 2656 1286 2365 
Q 1534 2075 1959 2075 
z
" transform="scale(0.015625)"/>
      </defs>
      <use xlink:href="#DejaVuSans-31"/>
      <use xlink:href="#DejaVuSans-65" x="63.623047"/>
      <use xlink:href="#DejaVuSans-2212" x="125.146484"/>
      <use xlink:href="#DejaVuSans-39" x="208.935547"/>
     </g>
    </g>
   </g>
   <g id="line2d_16">
    <path d="M 73.832727 172.577252 
L 75.715724 171.971497 
L 76.754618 171.875228 
L 77.663651 172.007785 
L 78.605149 172.378441 
L 79.644044 173.042546 
L 81.072524 174.25515 
L 83.150313 176.00266 
L 84.091811 176.501326 
L 84.870982 176.668224 
L 85.552756 176.594194 
L 86.234531 176.295396 
L 86.948771 175.734776 
L 87.760407 174.801643 
L 88.734371 173.320253 
L 90.130385 170.739232 
L 92.273105 166.801808 
L 93.214604 165.54329 
L 93.928844 164.92974 
L 94.513222 164.690983 
L 95.065135 164.704963 
L 95.584582 164.941384 
L 96.16896 165.470519 
L 96.818269 166.379332 
L 97.59744 167.885521 
L 98.571404 170.306618 
L 99.999884 174.543097 
L 102.045207 180.523927 
L 102.986705 182.603789 
L 103.700945 183.693326 
L 104.285324 184.209451 
L 104.772305 184.356627 
L 105.226822 184.25063 
L 105.681338 183.904821 
L 106.200785 183.216567 
L 106.817629 182.005437 
L 107.564335 180.010165 
L 108.505833 176.79851 
L 109.901847 171.11623 
L 112.044567 162.443173 
L 112.986065 159.540873 
L 113.700305 157.984695 
L 114.284684 157.205393 
L 114.7392 156.934876 
L 115.128785 156.947279 
L 115.518371 157.189674 
L 115.972887 157.763848 
L 116.5248 158.875526 
L 117.174109 160.736465 
L 117.985745 163.814347 
L 119.02464 168.712075 
L 122.95296 188.228654 
L 123.699665 190.454158 
L 124.284044 191.576583 
L 124.73856 192.036726 
L 125.09568 192.132937 
L 125.4528 191.990529 
L 125.842385 191.561315 
L 126.296902 190.702384 
L 126.848815 189.156192 
L 127.530589 186.534551 
L 128.374691 182.342445 
L 129.543447 175.278338 
L 132.5952 156.252013 
L 133.439302 152.544924 
L 134.121076 150.465053 
L 134.640524 149.507232 
L 135.030109 149.168966 
L 135.354764 149.143846 
L 135.679418 149.355092 
L 136.069004 149.920988 
L 136.52352 151.00639 
L 137.107898 153.050048 
L 137.822138 156.461688 
L 138.698705 161.814127 
L 139.964858 171.093548 
L 142.497164 189.922121 
L 143.406196 194.990179 
L 144.120436 197.838205 
L 144.672349 199.239279 
L 145.0944 199.802624 
L 145.419055 199.925261 
L 145.711244 199.800961 
L 146.035898 199.401148 
L 146.457949 198.472416 
L 146.977396 196.710437 
L 147.626705 193.601835 
L 148.405876 188.690468 
L 149.444771 180.577972 
L 153.373091 148.192643 
L 154.119796 144.42462 
L 154.704175 142.464822 
L 155.158691 141.597663 
L 155.515811 141.337735 
L 155.775535 141.386011 
L 156.067724 141.680711 
L 156.424844 142.385434 
L 156.87936 143.821737 
L 157.431273 146.347033 
L 158.113047 150.558071 
L 158.989615 157.48127 
L 160.223302 169.21666 
L 162.885469 194.990648 
L 163.794502 201.498986 
L 164.508742 205.127595 
L 165.060655 206.892856 
L 165.482705 207.586251 
L 165.774895 207.722121 
L 166.034618 207.603509 
L 166.326807 207.200038 
L 166.716393 206.220252 
L 167.203375 204.300871 
L 167.787753 201.027719 
L 168.534458 195.452678 
L 169.475956 186.603586 
L 170.969367 170.106812 
L 172.884829 149.450632 
L 173.826327 141.542016 
L 174.573033 136.998784 
L 175.157411 134.705157 
L 175.579462 133.795563 
L 175.904116 133.538116 
L 176.16384 133.613218 
L 176.456029 133.997388 
L 176.813149 134.895672 
L 177.267665 136.708819 
L 177.819578 139.877623 
L 178.533818 145.422934 
L 179.442851 154.460035 
L 180.741469 169.918711 
L 183.143913 198.704455 
L 184.085411 207.244539 
L 184.799651 211.903121 
L 185.351564 214.245115 
L 185.773615 215.238797 
L 186.098269 215.516305 
L 186.325527 215.455282 
L 186.585251 215.127215 
L 186.909905 214.330823 
L 187.331956 212.663641 
L 187.883869 209.443534 
L 188.565644 203.957378 
L 189.409745 195.180041 
L 190.578502 180.424914 
L 193.565324 141.581918 
L 194.441891 133.426726 
L 195.123665 128.953877 
L 195.643113 126.798951 
L 196.032698 125.94007 
L 196.324887 125.733896 
L 196.552145 125.835963 
L 196.811869 126.234319 
L 197.168989 127.269914 
L 197.623505 129.390138 
L 198.175418 133.122842 
L 198.857193 139.345822 
L 199.73376 149.562869 
L 200.967447 166.840428 
L 203.597149 204.240286 
L 204.506182 213.858532 
L 205.220422 219.267877 
L 205.772335 221.947609 
L 206.194385 223.049685 
L 206.486575 223.316409 
L 206.713833 223.239894 
L 206.973556 222.847391 
L 207.298211 221.901388 
L 207.720262 219.926926 
L 208.272175 216.121287 
L 208.953949 209.648534 
L 209.798051 199.309524 
L 210.966807 181.959872 
L 213.921164 136.835723 
L 214.797731 127.199133 
L 215.479505 121.880351 
L 216.031418 119.169253 
L 216.421004 118.170921 
L 216.713193 117.933471 
L 216.907985 118.020965 
L 217.167709 118.444155 
L 217.492364 119.463189 
L 217.914415 121.588994 
L 218.466327 125.684572 
L 219.148102 132.647491 
L 219.992204 143.76435 
L 221.16096 162.408867 
L 224.115316 210.851417 
L 224.991884 221.187181 
L 225.673658 226.890046 
L 226.193105 229.669921 
L 226.615156 230.866652 
L 226.87488 231.116559 
L 227.069673 231.058294 
L 227.296931 230.723529 
L 227.621585 229.748763 
L 228.043636 227.620788 
L 228.563084 223.710506 
L 229.212393 216.954838 
L 230.024029 205.967156 
L 231.127855 187.638999 
L 234.536727 128.609568 
L 235.380829 118.761768 
L 236.030138 113.56416 
L 236.51712 111.180993 
L 236.87424 110.301569 
L 237.133964 110.133264 
L 237.328756 110.269532 
L 237.58848 110.801058 
L 237.9456 112.180407 
L 238.400116 115.001116 
L 238.952029 119.960695 
L 239.633804 128.217738 
L 240.510371 141.752829 
L 241.776524 165.230534 
L 244.308829 212.835455 
L 245.250327 226.117656 
L 245.964567 233.339967 
L 246.51648 236.960529 
L 246.938531 238.491846 
L 247.23072 238.903839 
L 247.425513 238.880326 
L 247.652771 238.550794 
L 247.94496 237.650409 
L 248.334545 235.625347 
L 248.821527 231.806587 
L 249.438371 225.036049 
L 250.217542 213.741654 
L 251.223971 195.602505 
L 253.204364 154.6868 
L 254.600378 128.360862 
L 255.509411 115.103772 
L 256.223651 107.709398 
L 256.775564 104.092609 
L 257.165149 102.714933 
L 257.457338 102.338192 
L 257.652131 102.402817 
L 257.879389 102.798232 
L 258.171578 103.81067 
L 258.561164 106.031706 
L 259.048145 110.166072 
L 259.664989 117.43868 
L 260.44416 129.503145 
L 261.483055 149.467281 
L 265.411375 229.161127 
L 266.15808 238.543492 
L 266.774924 243.73449 
L 267.22944 245.943765 
L 267.554095 246.648497 
L 267.748887 246.716754 
L 267.94368 246.517803 
L 268.203404 245.837668 
L 268.560524 244.133934 
L 269.01504 240.705973 
L 269.566953 234.732349 
L 270.281193 224.312781 
L 271.190225 207.397218 
L 272.521309 177.846781 
L 274.826356 126.62528 
L 275.767855 110.629213 
L 276.482095 101.803564 
L 277.066473 97.068724 
L 277.488524 95.148032 
L 277.780713 94.579789 
L 277.975505 94.55123 
L 278.170298 94.803837 
L 278.430022 95.577291 
L 278.787142 97.448318 
L 279.241658 101.151676 
L 279.826036 107.984046 
L 280.540276 119.204652 
L 281.449309 137.250441 
L 282.845324 170.10056 
L 284.988044 220.098525 
L 285.929542 237.07638 
L 286.676247 246.858184 
L 287.260625 251.842142 
L 287.682676 253.867829 
L 287.974865 254.470723 
L 288.169658 254.504605 
L 288.364451 254.243507 
L 288.624175 253.436972 
L 288.981295 251.480256 
L 289.435811 247.602124 
L 290.020189 240.442379 
L 290.734429 228.679437 
L 291.643462 209.757424 
L 293.039476 175.308208 
L 295.182196 122.870835 
L 296.123695 105.060272 
L 296.8704 94.794338 
L 297.454778 89.559064 
L 297.876829 87.426904 
L 298.169018 86.788354 
L 298.363811 86.748193 
L 298.558604 87.01704 
L 298.818327 87.855673 
L 299.175447 89.896746 
L 299.629964 93.948025 
L 300.214342 101.433283 
L 300.928582 113.736473 
L 301.837615 133.532686 
L 303.201164 168.703345 
L 305.376349 224.458617 
L 306.317847 243.104348 
L 307.064553 253.856831 
L 307.648931 259.345519 
L 308.070982 261.585739 
L 308.363171 262.260852 
L 308.557964 262.30825 
L 308.752756 262.0324 
L 309.01248 261.16266 
L 309.3696 259.038565 
L 309.824116 254.815782 
L 310.408495 247.00697 
L 311.122735 234.165622 
L 312.031767 213.497224 
L 313.395316 176.769129 
L 315.570502 118.531139 
L 316.512 99.047786 
L 317.258705 87.806332 
L 317.843084 82.062133 
L 318.265135 79.712273 
L 318.557324 78.999275 
L 318.752116 78.944107 
L 318.914444 79.155852 
L 319.174167 79.980847 
L 319.531287 82.085335 
L 319.985804 86.353113 
L 320.537716 93.820046 
L 321.251956 106.87374 
L 322.160989 128.094747 
L 323.492073 165.197476 
L 325.79712 229.56517 
L 326.738618 249.699089 
L 327.452858 260.834158 
L 328.037236 266.835959 
L 328.459287 269.29704 
L 328.751476 270.049035 
L 328.946269 270.112717 
L 329.108596 269.89735 
L 329.335855 269.186661 
L 329.660509 267.348266 
L 330.08256 263.537277 
L 330.634473 256.226326 
L 331.316247 243.841804 
L 332.160349 224.137507 
L 333.361571 190.247237 
L 336.186065 108.616409 
L 337.095098 89.449567 
L 337.776873 79.185957 
L 338.328785 73.836181 
L 338.750836 71.649523 
L 339.01056 71.147227 
L 339.172887 71.1626 
L 339.36768 71.515871 
L 339.627404 72.553816 
L 339.984524 75.028491 
L 340.43904 79.89078 
L 341.023418 88.820517 
L 341.737658 103.436949 
L 342.679156 127.796382 
L 344.107636 171.487756 
L 346.120495 232.197977 
L 347.094458 255.067131 
L 347.841164 267.789961 
L 348.425542 274.313238 
L 348.847593 277.0015 
L 349.172247 277.87505 
L 349.334575 277.917775 
L 349.496902 277.697027 
L 349.72416 276.946096 
L 350.048815 274.984439 
L 350.470865 270.89954 
L 351.022778 263.043915 
L 351.704553 249.718056 
L 352.548655 228.496275 
L 353.749876 191.970887 
L 356.574371 103.911629 
L 357.483404 83.207288 
L 358.165178 72.104105 
L 358.717091 66.301065 
L 359.139142 63.913972 
L 359.398865 63.352689 
L 359.561193 63.356609 
L 359.72352 63.633754 
L 359.983244 64.64424 
L 360.340364 67.163411 
L 360.79488 72.219093 
L 361.346793 81.012732 
L 362.061033 96.325293 
L 362.970065 121.13969 
L 364.301149 164.393319 
L 366.573731 238.211171 
L 367.515229 261.699759 
L 368.261935 275.204171 
L 368.846313 282.067887 
L 369.268364 284.845827 
L 369.560553 285.663878 
L 369.72288 285.723195 
L 369.885207 285.499547 
L 370.112465 284.711839 
L 370.43712 282.63181 
L 370.859171 278.278984 
L 371.378618 270.461818 
L 372.027927 257.157104 
L 372.872029 234.815401 
L 374.00832 198.230202 
L 377.092538 95.679938 
L 377.969105 75.018523 
L 378.65088 63.706867 
L 379.170327 58.252948 
L 379.559913 56.065058 
L 379.819636 55.53459 
L 379.981964 55.583113 
L 380.176756 56.027581 
L 380.43648 57.273798 
L 380.7936 60.194147 
L 381.248116 65.882206 
L 381.832495 76.273611 
L 382.546735 93.221813 
L 383.488233 121.386319 
L 384.949178 172.945075 
L 386.929571 241.4895 
L 387.903535 267.653464 
L 388.65024 282.152234 
L 389.234618 289.541139 
L 389.656669 292.549029 
L 389.948858 293.450345 
L 390.111185 293.528736 
L 390.273513 293.304672 
L 390.500771 292.483649 
L 390.825425 290.290142 
L 391.247476 285.675775 
L 391.766924 277.366167 
L 392.416233 263.199867 
L 393.260335 239.384983 
L 394.396625 200.353161 
L 397.513309 89.871998 
L 398.389876 68.009745 
L 398.487273 66.017484 
L 398.487273 66.017484 
" clip-path="url(#peac5a01f19)" style="fill: none; stroke: #1f77b4; stroke-width: 1.5; stroke-linecap: square"/>
   </g>
   <g id="line2d_17">
    <path d="M 73.832727 172.577252 
L 74.806691 172.470121 
L 75.878051 172.121597 
L 77.436393 171.347706 
L 79.189527 170.533325 
L 80.163491 170.320274 
L 81.007593 170.36103 
L 81.786764 170.617365 
L 82.5984 171.119041 
L 83.507433 171.95144 
L 84.643724 173.317928 
L 88.182458 177.81993 
L 88.961629 178.353642 
L 89.610938 178.554234 
L 90.227782 178.511698 
L 90.81216 178.247937 
L 91.461469 177.694261 
L 92.175709 176.776002 
L 93.019811 175.309914 
L 94.123636 172.899405 
L 97.792233 164.457854 
L 98.571404 163.390767 
L 99.188247 162.891621 
L 99.707695 162.736998 
L 100.194676 162.826314 
L 100.681658 163.148844 
L 101.233571 163.796803 
L 101.88288 164.931959 
L 102.662051 166.784001 
L 103.636015 169.722439 
L 105.161891 175.156103 
L 107.012422 181.565064 
L 107.95392 184.069283 
L 108.66816 185.405626 
L 109.252538 186.066201 
L 109.707055 186.28519 
L 110.129105 186.246485 
L 110.551156 185.969787 
L 111.038138 185.354167 
L 111.622516 184.20535 
L 112.304291 182.332672 
L 113.148393 179.317039 
L 114.284684 174.348235 
L 117.498764 159.753812 
L 118.342865 157.140595 
L 118.992175 155.779835 
L 119.511622 155.154107 
L 119.933673 154.969061 
L 120.290793 155.046185 
L 120.680378 155.377619 
L 121.134895 156.089328 
L 121.686807 157.412899 
L 122.368582 159.702422 
L 123.212684 163.417366 
L 124.316509 169.380704 
L 127.692916 188.373356 
L 128.504553 191.434541 
L 129.153862 193.095753 
L 129.640844 193.824236 
L 130.030429 194.068122 
L 130.355084 194.034871 
L 130.712204 193.747105 
L 131.134255 193.068444 
L 131.653702 191.739157 
L 132.270545 189.486791 
L 133.049716 185.699617 
L 134.056145 179.558391 
L 135.776815 167.357582 
L 137.367622 156.696788 
L 138.30912 151.795756 
L 139.02336 149.141361 
L 139.575273 147.830054 
L 139.997324 147.298219 
L 140.321978 147.1775 
L 140.614167 147.286896 
L 140.938822 147.651822 
L 141.360873 148.506948 
L 141.88032 150.136277 
L 142.497164 152.853625 
L 143.276335 157.37126 
L 144.282764 164.626823 
L 146.198225 180.506424 
L 147.626705 191.412141 
L 148.535738 196.783459 
L 149.249978 199.77147 
L 149.801891 201.216455 
L 150.223942 201.774451 
L 150.548596 201.869988 
L 150.840785 201.704526 
L 151.16544 201.240709 
L 151.587491 200.201084 
L 152.106938 198.262322 
L 152.756247 194.876967 
L 153.567884 189.31941 
L 154.639244 180.256647 
L 158.30784 147.694436 
L 159.087011 143.239213 
L 159.703855 140.850013 
L 160.190836 139.750349 
L 160.547956 139.407318 
L 160.80768 139.409426 
L 161.099869 139.666859 
L 161.456989 140.347582 
L 161.911505 141.788225 
L 162.463418 144.37089 
L 163.145193 148.729508 
L 163.989295 155.661586 
L 165.158051 167.264761 
L 168.079942 197.080641 
L 168.956509 203.531495 
L 169.638284 207.084038 
L 170.190196 208.882404 
L 170.579782 209.531699 
L 170.871971 209.671568 
L 171.131695 209.543222 
L 171.423884 209.114103 
L 171.813469 208.076023 
L 172.300451 206.046415 
L 172.884829 202.589582 
L 173.631535 196.707444 
L 174.573033 187.379423 
L 176.066444 170.008253 
L 177.94944 148.61017 
L 178.923404 139.978788 
L 179.670109 135.211045 
L 180.254487 132.806928 
L 180.676538 131.855463 
L 181.001193 131.588193 
L 181.228451 131.644801 
L 181.488175 131.956167 
L 181.845295 132.812493 
L 182.299811 134.607716 
L 182.851724 137.808921 
L 183.533498 143.190017 
L 184.410065 152.081791 
L 185.643753 167.208809 
L 188.338385 200.932886 
L 189.247418 209.34376 
L 189.961658 214.045975 
L 190.513571 216.349307 
L 190.935622 217.271539 
L 191.227811 217.470565 
L 191.455069 217.373841 
L 191.714793 216.993239 
L 192.071913 216.002126 
L 192.526429 213.971292 
L 193.078342 210.394038 
L 193.760116 204.427595 
L 194.636684 194.627574 
L 195.870371 178.047167 
L 198.500073 142.128687 
L 199.409105 132.884643 
L 200.123345 127.683726 
L 200.675258 125.106158 
L 201.097309 124.045397 
L 201.389498 123.788129 
L 201.616756 123.861097 
L 201.87648 124.237888 
L 202.201135 125.146917 
L 202.623185 127.045135 
L 203.175098 130.705099 
L 203.856873 136.93192 
L 204.700975 146.881327 
L 205.869731 163.582947 
L 208.824087 207.048954 
L 209.700655 216.336903 
L 210.382429 221.46451 
L 210.934342 224.078749 
L 211.323927 225.041665 
L 211.616116 225.27085 
L 211.810909 225.186609 
L 212.070633 224.778639 
L 212.395287 223.79597 
L 212.817338 221.745643 
L 213.369251 217.7948 
L 214.051025 211.076708 
L 214.895127 200.348517 
L 216.063884 182.351234 
L 219.01824 135.568236 
L 219.894807 125.582369 
L 220.576582 120.071833 
L 221.096029 117.385571 
L 221.51808 116.229253 
L 221.810269 115.983261 
L 222.005062 116.073822 
L 222.264785 116.511987 
L 222.58944 117.567082 
L 223.011491 119.767984 
L 223.563404 124.007916 
L 224.245178 131.215056 
L 225.08928 142.720072 
L 226.258036 162.011409 
L 229.212393 212.114217 
L 230.08896 222.800506 
L 230.770735 228.696285 
L 231.290182 231.570252 
L 231.679767 232.748379 
L 231.971956 233.066571 
L 232.166749 233.006781 
L 232.394007 232.661383 
L 232.718662 231.655004 
L 233.140713 229.457556 
L 233.66016 225.419428 
L 234.309469 218.443114 
L 235.121105 207.097528 
L 236.224931 188.174964 
L 239.633804 127.250339 
L 240.44544 117.416009 
L 241.094749 111.938214 
L 241.614196 109.265732 
L 241.971316 108.357449 
L 242.23104 108.182892 
L 242.425833 108.322651 
L 242.685556 108.869713 
L 243.010211 110.129715 
L 243.432262 112.707937 
L 243.984175 117.620125 
L 244.665949 125.910068 
L 245.542516 139.633488 
L 246.743738 162.339673 
L 249.503302 215.588007 
L 250.412335 228.468488 
L 251.126575 235.652176 
L 251.678487 239.164914 
L 252.068073 240.501922 
L 252.360262 240.866416 
L 252.555055 240.802385 
L 252.782313 240.416624 
L 253.074502 239.430294 
L 253.464087 237.268223 
L 253.951069 233.244899 
L 254.567913 226.168692 
L 255.347084 214.43073 
L 256.385978 195.006843 
L 260.314298 117.462759 
L 261.061004 108.334053 
L 261.677847 103.284661 
L 262.132364 101.137023 
L 262.457018 100.453305 
L 262.651811 100.388332 
L 262.846604 100.583554 
L 263.106327 101.247835 
L 263.463447 102.909656 
L 263.917964 106.251379 
L 264.469876 112.073118 
L 265.184116 122.226349 
L 266.093149 138.708543 
L 267.424233 167.501732 
L 269.72928 217.41173 
L 270.670778 232.997444 
L 271.385018 241.595348 
L 271.969396 246.206365 
L 272.391447 248.075204 
L 272.683636 248.626592 
L 272.878429 248.652663 
L 273.073222 248.404581 
L 273.332945 247.648037 
L 273.690065 245.820354 
L 274.144582 242.205 
L 274.72896 235.537097 
L 275.4432 224.588435 
L 276.352233 206.981507 
L 277.748247 174.931469 
L 279.890967 126.152415 
L 280.832465 109.589922 
L 281.579171 100.049275 
L 282.163549 95.19009 
L 282.5856 93.217256 
L 282.877789 92.631774 
L 283.072582 92.600542 
L 283.267375 92.857488 
L 283.527098 93.647606 
L 283.884218 95.561648 
L 284.338735 99.352599 
L 284.923113 106.349034 
L 285.637353 117.84105 
L 286.546385 136.325179 
L 287.909935 169.157044 
L 290.08512 221.192306 
L 291.026618 238.586357 
L 291.773324 248.609741 
L 292.357702 253.719293 
L 292.779753 255.79781 
L 293.071942 256.418393 
L 293.266735 256.455532 
L 293.461527 256.190466 
L 293.721251 255.367758 
L 294.078371 253.368692 
L 294.532887 249.403777 
L 295.117265 242.080849 
L 295.831505 230.047537 
L 296.740538 210.688194 
L 298.104087 176.296812 
L 300.279273 121.782143 
L 301.220771 103.554158 
L 301.967476 93.045433 
L 302.551855 87.683514 
L 302.973905 85.49773 
L 303.266095 84.840932 
L 303.460887 84.797141 
L 303.65568 85.069582 
L 303.915404 85.923893 
L 304.272524 88.006648 
L 304.72704 92.143889 
L 305.311418 99.79135 
L 306.025658 112.363864 
L 306.934691 132.596403 
L 308.29824 168.545904 
L 310.473425 225.5422 
L 311.414924 244.606582 
L 312.161629 255.603068 
L 312.746007 261.219451 
L 313.168058 263.514085 
L 313.460247 264.208211 
L 313.65504 264.259401 
L 313.849833 263.980327 
L 314.109556 263.0954 
L 314.466676 260.930291 
L 314.921193 256.622367 
L 315.505571 248.652337 
L 316.219811 235.542706 
L 317.128844 214.439002 
L 318.492393 176.932769 
L 320.667578 117.452662 
L 321.609076 97.549426 
L 322.355782 86.062761 
L 322.94016 80.189822 
L 323.362211 77.784759 
L 323.6544 77.05219 
L 323.849193 76.992858 
L 324.01152 77.206491 
L 324.271244 78.044835 
L 324.595898 79.945917 
L 325.017949 83.806754 
L 325.569862 91.127717 
L 326.251636 103.438071 
L 327.128204 123.75116 
L 328.361891 158.205891 
L 331.024058 233.812292 
L 331.933091 252.98986 
L 332.647331 263.803513 
L 333.199244 269.200262 
L 333.621295 271.464401 
L 333.913484 272.058287 
L 334.075811 272.040439 
L 334.270604 271.69063 
L 334.530327 270.668189 
L 334.887447 268.234964 
L 335.341964 263.458355 
L 335.926342 254.690498 
L 336.640582 240.34307 
L 337.58208 216.436733 
L 339.01056 173.565424 
L 341.023418 114.005939 
L 341.997382 91.575806 
L 342.744087 79.101556 
L 343.328465 72.70923 
L 343.750516 70.078564 
L 344.075171 69.227102 
L 344.237498 69.187924 
L 344.399825 69.407561 
L 344.627084 70.148966 
L 344.951738 72.080058 
L 345.373789 76.09726 
L 345.925702 83.817289 
L 346.607476 96.90872 
L 347.451578 117.751885 
L 348.6528 153.619069 
L 351.477295 240.070268 
L 352.386327 260.38928 
L 353.068102 271.28191 
L 353.620015 276.97089 
L 354.042065 279.307228 
L 354.301789 279.853234 
L 354.464116 279.846218 
L 354.626444 279.57085 
L 354.886167 278.573538 
L 355.243287 276.092367 
L 355.697804 271.11812 
L 356.282182 261.877472 
L 356.996422 246.640365 
L 357.905455 222.072328 
L 359.269004 178.353378 
L 361.444189 108.916484 
L 362.418153 84.948125 
L 363.164858 71.690617 
L 363.749236 64.957093 
L 364.171287 62.235446 
L 364.463476 61.437728 
L 364.625804 61.38258 
L 364.788131 61.605737 
L 365.015389 62.384786 
L 365.340044 64.435473 
L 365.762095 68.72195 
L 366.281542 76.415066 
L 366.930851 89.503142 
L 367.774953 111.475032 
L 368.943709 148.546514 
L 371.962996 247.384861 
L 372.839564 267.913062 
L 373.521338 279.233329 
L 374.040785 284.759915 
L 374.430371 287.038734 
L 374.690095 287.646489 
L 374.852422 287.652788 
L 375.014749 287.371244 
L 375.274473 286.323561 
L 375.631593 283.692389 
L 376.086109 278.394854 
L 376.638022 269.164499 
L 377.352262 253.074618 
L 378.261295 226.981216 
L 379.592378 181.470663 
L 381.86496 103.743289 
L 382.806458 78.986618 
L 383.553164 64.737157 
L 384.137542 57.480533 
L 384.559593 54.530513 
L 384.851782 53.65064 
L 385.014109 53.577039 
L 385.176436 53.801231 
L 385.403695 54.614461 
L 385.728349 56.77985 
L 386.1504 61.329416 
L 386.669847 69.516781 
L 387.319156 83.46832 
L 388.163258 106.915698 
L 389.299549 145.336621 
L 392.416233 254.052244 
L 393.2928 275.555071 
L 393.974575 287.251041 
L 394.494022 292.826597 
L 394.883607 295.0061 
L 395.143331 295.483493 
L 395.273193 295.427542 
L 395.467985 294.974763 
L 395.727709 293.684778 
L 396.084829 290.643785 
L 396.539345 284.703198 
L 397.123724 273.831874 
L 397.837964 256.082277 
L 398.487273 236.350715 
L 398.487273 236.350715 
" clip-path="url(#peac5a01f19)" style="fill: none; stroke: #ff7f0e; stroke-width: 1.5; stroke-linecap: square"/>
   </g>
   <g id="patch_3">
    <path d="M 57.6 307.584 
L 57.6 41.472 
" style="fill: none; stroke: #000000; stroke-width: 0.8; stroke-linejoin: miter; stroke-linecap: square"/>
   </g>
   <g id="patch_4">
    <path d="M 414.72 307.584 
L 414.72 41.472 
" style="fill: none; stroke: #000000; stroke-width: 0.8; stroke-linejoin: miter; stroke-linecap: square"/>
   </g>
   <g id="patch_5">
    <path d="M 57.6 307.584 
L 414.72 307.584 
" style="fill: none; stroke: #000000; stroke-width: 0.8; stroke-linejoin: miter; stroke-linecap: square"/>
   </g>
   <g id="patch_6">
    <path d="M 57.6 41.472 
L 414.72 41.472 
" style="fill: none; stroke: #000000; stroke-width: 0.8; stroke-linejoin: miter; stroke-linecap: square"/>
   </g>
   <g id="text_17">
    <!-- h=0.01 -->
    <g transform="translate(213.970313 35.472) scale(0.12 -0.12)">
     <defs>
      <path id="DejaVuSans-68" d="M 3513 2113 
L 3513 0 
L 2938 0 
L 2938 2094 
Q 2938 2591 2744 2837 
Q 2550 3084 2163 3084 
Q 1697 3084 1428 2787 
Q 1159 2491 1159 1978 
L 1159 0 
L 581 0 
L 581 4863 
L 1159 4863 
L 1159 2956 
Q 1366 3272 1645 3428 
Q 1925 3584 2291 3584 
Q 2894 3584 3203 3211 
Q 3513 2838 3513 2113 
z
" transform="scale(0.015625)"/>
      <path id="DejaVuSans-3d" d="M 678 2906 
L 4684 2906 
L 4684 2381 
L 678 2381 
L 678 2906 
z
M 678 1631 
L 4684 1631 
L 4684 1100 
L 678 1100 
L 678 1631 
z
" transform="scale(0.015625)"/>
      <path id="DejaVuSans-2e" d="M 684 794 
L 1344 794 
L 1344 0 
L 684 0 
L 684 794 
z
" transform="scale(0.015625)"/>
     </defs>
     <use xlink:href="#DejaVuSans-68"/>
     <use xlink:href="#DejaVuSans-3d" x="63.378906"/>
     <use xlink:href="#DejaVuSans-30" x="147.167969"/>
     <use xlink:href="#DejaVuSans-2e" x="210.791016"/>
     <use xlink:href="#DejaVuSans-30" x="242.578125"/>
     <use xlink:href="#DejaVuSans-31" x="306.201172"/>
    </g>
   </g>
   <g id="legend_1">
    <g id="patch_7">
     <path d="M 64.6 78.872 
L 132.3 78.872 
Q 134.3 78.872 134.3 76.872 
L 134.3 48.472 
Q 134.3 46.472 132.3 46.472 
L 64.6 46.472 
Q 62.6 46.472 62.6 48.472 
L 62.6 76.872 
Q 62.6 78.872 64.6 78.872 
z
" style="fill: #ffffff; opacity: 0.8; stroke: #cccccc; stroke-linejoin: miter"/>
    </g>
    <g id="line2d_18">
     <path d="M 66.6 54.572 
L 76.6 54.572 
L 86.6 54.572 
" style="fill: none; stroke: #1f77b4; stroke-width: 1.5; stroke-linecap: square"/>
    </g>
    <g id="text_18">
     <!-- $p(t)_\mathrm{error}$ -->
     <g transform="translate(94.6 58.072) scale(0.1 -0.1)">
      <defs>
       <path id="DejaVuSans-Oblique-70" d="M 3175 2156 
Q 3175 2616 2975 2859 
Q 2775 3103 2400 3103 
Q 2144 3103 1911 2972 
Q 1678 2841 1497 2591 
Q 1319 2344 1212 1994 
Q 1106 1644 1106 1300 
Q 1106 863 1306 627 
Q 1506 391 1875 391 
Q 2147 391 2380 519 
Q 2613 647 2778 891 
Q 2956 1147 3065 1494 
Q 3175 1841 3175 2156 
z
M 1394 2969 
Q 1625 3272 1939 3428 
Q 2253 3584 2638 3584 
Q 3175 3584 3472 3232 
Q 3769 2881 3769 2247 
Q 3769 1728 3584 1258 
Q 3400 788 3053 416 
Q 2822 169 2531 39 
Q 2241 -91 1919 -91 
Q 1547 -91 1294 64 
Q 1041 219 916 525 
L 556 -1331 
L -19 -1331 
L 922 3500 
L 1497 3500 
L 1394 2969 
z
" transform="scale(0.015625)"/>
       <path id="DejaVuSans-28" d="M 1984 4856 
Q 1566 4138 1362 3434 
Q 1159 2731 1159 2009 
Q 1159 1288 1364 580 
Q 1569 -128 1984 -844 
L 1484 -844 
Q 1016 -109 783 600 
Q 550 1309 550 2009 
Q 550 2706 781 3412 
Q 1013 4119 1484 4856 
L 1984 4856 
z
" transform="scale(0.015625)"/>
       <path id="DejaVuSans-Oblique-74" d="M 2706 3500 
L 2619 3053 
L 1472 3053 
L 1100 1153 
Q 1081 1047 1072 975 
Q 1063 903 1063 863 
Q 1063 663 1183 572 
Q 1303 481 1569 481 
L 2150 481 
L 2053 0 
L 1503 0 
Q 991 0 739 200 
Q 488 400 488 806 
Q 488 878 497 964 
Q 506 1050 525 1153 
L 897 3053 
L 409 3053 
L 500 3500 
L 978 3500 
L 1172 4494 
L 1747 4494 
L 1556 3500 
L 2706 3500 
z
" transform="scale(0.015625)"/>
       <path id="DejaVuSans-29" d="M 513 4856 
L 1013 4856 
Q 1481 4119 1714 3412 
Q 1947 2706 1947 2009 
Q 1947 1309 1714 600 
Q 1481 -109 1013 -844 
L 513 -844 
Q 928 -128 1133 580 
Q 1338 1288 1338 2009 
Q 1338 2731 1133 3434 
Q 928 4138 513 4856 
z
" transform="scale(0.015625)"/>
       <path id="DejaVuSans-72" d="M 2631 2963 
Q 2534 3019 2420 3045 
Q 2306 3072 2169 3072 
Q 1681 3072 1420 2755 
Q 1159 2438 1159 1844 
L 1159 0 
L 581 0 
L 581 3500 
L 1159 3500 
L 1159 2956 
Q 1341 3275 1631 3429 
Q 1922 3584 2338 3584 
Q 2397 3584 2469 3576 
Q 2541 3569 2628 3553 
L 2631 2963 
z
" transform="scale(0.015625)"/>
       <path id="DejaVuSans-6f" d="M 1959 3097 
Q 1497 3097 1228 2736 
Q 959 2375 959 1747 
Q 959 1119 1226 758 
Q 1494 397 1959 397 
Q 2419 397 2687 759 
Q 2956 1122 2956 1747 
Q 2956 2369 2687 2733 
Q 2419 3097 1959 3097 
z
M 1959 3584 
Q 2709 3584 3137 3096 
Q 3566 2609 3566 1747 
Q 3566 888 3137 398 
Q 2709 -91 1959 -91 
Q 1206 -91 779 398 
Q 353 888 353 1747 
Q 353 2609 779 3096 
Q 1206 3584 1959 3584 
z
" transform="scale(0.015625)"/>
      </defs>
      <use xlink:href="#DejaVuSans-Oblique-70" transform="translate(0 0.125)"/>
      <use xlink:href="#DejaVuSans-28" transform="translate(63.476562 0.125)"/>
      <use xlink:href="#DejaVuSans-Oblique-74" transform="translate(102.490234 0.125)"/>
      <use xlink:href="#DejaVuSans-29" transform="translate(141.699219 0.125)"/>
      <use xlink:href="#DejaVuSans-65" transform="translate(181.669922 -16.28125) scale(0.7)"/>
      <use xlink:href="#DejaVuSans-72" transform="translate(224.736328 -16.28125) scale(0.7)"/>
      <use xlink:href="#DejaVuSans-72" transform="translate(253.515625 -16.28125) scale(0.7)"/>
      <use xlink:href="#DejaVuSans-6f" transform="translate(282.294922 -16.28125) scale(0.7)"/>
      <use xlink:href="#DejaVuSans-72" transform="translate(325.12207 -16.28125) scale(0.7)"/>
     </g>
    </g>
    <g id="line2d_19">
     <path d="M 66.6 69.272 
L 76.6 69.272 
L 86.6 69.272 
" style="fill: none; stroke: #ff7f0e; stroke-width: 1.5; stroke-linecap: square"/>
    </g>
    <g id="text_19">
     <!-- $q(t)_\mathrm{error}$ -->
     <g transform="translate(94.6 72.772) scale(0.1 -0.1)">
      <defs>
       <path id="DejaVuSans-Oblique-71" d="M 2669 525 
Q 2438 222 2123 65 
Q 1809 -91 1428 -91 
Q 897 -91 595 267 
Q 294 625 294 1253 
Q 294 1759 480 2231 
Q 666 2703 1013 3078 
Q 1238 3322 1530 3453 
Q 1822 3584 2144 3584 
Q 2531 3584 2781 3431 
Q 3031 3278 3144 2969 
L 3244 3494 
L 3822 3494 
L 2888 -1319 
L 2309 -1319 
L 2669 525 
z
M 891 1338 
Q 891 875 1084 633 
Q 1278 391 1644 391 
Q 2188 391 2572 911 
Q 2956 1431 2956 2175 
Q 2956 2625 2757 2864 
Q 2559 3103 2188 3103 
Q 1916 3103 1684 2976 
Q 1453 2850 1281 2606 
Q 1100 2350 995 2006 
Q 891 1663 891 1338 
z
" transform="scale(0.015625)"/>
      </defs>
      <use xlink:href="#DejaVuSans-Oblique-71" transform="translate(0 0.125)"/>
      <use xlink:href="#DejaVuSans-28" transform="translate(63.476562 0.125)"/>
      <use xlink:href="#DejaVuSans-Oblique-74" transform="translate(102.490234 0.125)"/>
      <use xlink:href="#DejaVuSans-29" transform="translate(141.699219 0.125)"/>
      <use xlink:href="#DejaVuSans-65" transform="translate(181.669922 -16.28125) scale(0.7)"/>
      <use xlink:href="#DejaVuSans-72" transform="translate(224.736328 -16.28125) scale(0.7)"/>
      <use xlink:href="#DejaVuSans-72" transform="translate(253.515625 -16.28125) scale(0.7)"/>
      <use xlink:href="#DejaVuSans-6f" transform="translate(282.294922 -16.28125) scale(0.7)"/>
      <use xlink:href="#DejaVuSans-72" transform="translate(325.12207 -16.28125) scale(0.7)"/>
     </g>
    </g>
   </g>
  </g>
 </g>
 <defs>
  <clipPath id="peac5a01f19">
   <rect x="57.6" y="41.472" width="357.12" height="266.112"/>
  </clipPath>
 </defs>
</svg>
